<?xml version="1.0" standalone="no"?>
<!DOCTYPE svg PUBLIC "-//W3C//DTD SVG 20010904//EN"
 "http://www.w3.org/TR/2001/REC-SVG-20010904/DTD/svg10.dtd">
<svg version="1.0" xmlns="http://www.w3.org/2000/svg"
 width="500.000000pt" height="500.000000pt" viewBox="0 0 500.000000 500.000000"
 preserveAspectRatio="xMidYMid meet">
<metadata>
Created by potrace 1.11, written by Peter Selinger 2001-2013
</metadata>
<g transform="translate(0.000000,500.000000) scale(0.100000,-0.100000)"
fill="#000000" stroke="none">
<path d="M2961 3592 c-18 -33 -95 -80 -171 -102 -36 -11 -121 -27 -190 -35
-211 -26 -328 -68 -436 -153 -132 -104 -206 -350 -145 -487 12 -27 25 -45 30
-39 4 5 13 34 20 64 24 113 86 215 155 254 90 52 94 42 17 -39 -90 -95 -118
-154 -134 -275 -13 -103 -9 -113 43 -142 75 -39 249 -9 362 63 62 40 172 157
231 246 94 141 175 344 218 544 22 103 22 142 0 101z"/>
<path d="M2298 2493 c-24 -27 -38 -111 -38 -224 0 -106 9 -139 39 -139 23 0
41 40 41 95 0 27 6 50 17 60 16 16 17 16 30 -1 7 -10 13 -44 13 -75 0 -60 18
-93 45 -83 21 8 25 30 26 126 1 129 -23 158 -103 123 -16 -6 -18 -1 -18 43 0
33 -6 57 -18 72 -17 21 -18 21 -34 3z"/>
<path d="M1269 2483 c-11 -12 -14 -55 -14 -176 0 -141 2 -161 18 -171 26 -17
50 4 61 52 6 26 16 42 28 45 15 4 18 -1 18 -38 0 -33 5 -47 21 -59 49 -34 66
6 75 173 6 112 5 134 -10 156 -20 30 -51 33 -66 6 -5 -11 -10 -46 -10 -79 0
-50 -3 -60 -19 -65 -17 -4 -19 3 -23 70 -3 60 -7 78 -23 89 -25 18 -39 18 -56
-3z"/>
<path d="M2130 2485 c-7 -8 -15 -29 -19 -46 -4 -22 -15 -35 -39 -44 l-32 -14
0 50 c0 36 -4 51 -16 56 -45 17 -81 -97 -70 -226 7 -92 23 -126 56 -126 25 0
25 0 28 107 l3 107 24 -11 c24 -11 25 -16 25 -90 0 -70 3 -82 25 -103 42 -43
143 -27 133 21 -2 12 -14 21 -32 24 -41 7 -50 27 -42 93 6 45 11 57 25 57 10
0 26 9 37 21 18 20 18 21 -1 35 -10 8 -26 14 -36 14 -12 0 -15 6 -12 24 6 28
-12 66 -31 66 -8 0 -19 -7 -26 -15z"/>
<path d="M2913 2480 l-43 -19 -2 -68 c-5 -142 3 -237 20 -250 35 -28 127 -8
167 36 27 31 27 97 -1 120 l-21 17 23 34 c26 37 31 86 11 111 -32 42 -88 49
-154 19z m77 -89 c0 -11 -8 -27 -17 -37 -17 -17 -18 -17 -21 5 -4 22 13 51 29
51 5 0 9 -9 9 -19z m0 -134 c0 -14 -20 -37 -32 -37 -10 0 -11 34 -1 43 11 12
33 8 33 -6z"/>
<path d="M3267 2482 c-10 -10 -17 -31 -17 -45 0 -21 -7 -30 -36 -42 -34 -14
-38 -14 -49 2 -16 21 -43 11 -55 -22 -13 -35 -13 -191 0 -216 15 -27 45 -24
58 6 7 14 12 62 12 105 l0 80 25 -12 c24 -11 25 -16 25 -90 0 -70 3 -82 25
-103 31 -32 93 -34 120 -5 24 26 13 48 -27 52 l-33 3 -3 67 -3 67 36 15 c46
20 49 54 5 63 -24 4 -29 9 -24 25 6 19 -19 68 -35 68 -4 0 -15 -8 -24 -18z"/>
<path d="M3120 2475 c-14 -17 -5 -35 19 -35 22 0 45 25 36 40 -9 15 -41 12
-55 -5z"/>
<path d="M1574 2420 c-59 -24 -95 -150 -61 -216 27 -52 55 -69 111 -65 10 0
33 16 51 34 l32 32 12 -26 c17 -39 62 -55 99 -36 26 13 30 12 41 -4 16 -26 38
-24 57 6 20 31 15 150 -9 207 -29 68 -111 86 -164 36 -41 -38 -17 -88 28 -60
26 17 69 15 69 -2 0 -8 -16 -20 -36 -26 -20 -7 -51 -26 -70 -42 -19 -17 -34
-25 -34 -19 0 16 -24 14 -58 -6 -17 -10 -36 -14 -48 -9 -16 6 -12 10 22 25 48
22 74 54 74 92 0 41 -10 58 -41 74 -31 17 -44 18 -75 5z m34 -101 c-31 -20
-39 -1 -10 27 16 17 17 17 20 -1 2 -9 -2 -21 -10 -26z m230 -86 c-2 -10 -14
-20 -28 -22 -25 -3 -25 -3 -6 18 23 26 39 27 34 4z"/>
<path d="M3446 2409 c-101 -79 -70 -269 45 -269 63 0 128 71 92 101 -12 10
-21 9 -48 -5 -20 -11 -41 -16 -52 -12 -14 6 -9 11 24 26 74 33 95 110 42 154
-37 31 -67 33 -103 5z m64 -68 c0 -12 -29 -35 -36 -28 -11 10 5 37 21 37 8 0
15 -4 15 -9z"/>
<path d="M3641 2403 c-43 -40 -48 -71 -17 -116 32 -47 33 -65 3 -76 -51 -20
-58 -65 -12 -77 29 -7 89 21 109 51 31 47 30 70 -5 110 l-33 38 33 27 c43 37
39 64 -11 68 -29 2 -43 -3 -67 -25z"/>
<path d="M2514 2385 c-24 -38 -23 -142 2 -186 29 -49 65 -59 105 -30 l32 24
-7 -39 c-4 -22 -14 -49 -22 -62 -12 -19 -20 -21 -54 -16 -32 5 -41 3 -47 -11
-9 -26 39 -65 81 -65 80 0 121 80 121 235 0 117 -15 160 -55 160 -23 0 -25 -4
-31 -63 -6 -67 -18 -88 -43 -79 -12 5 -16 20 -16 54 0 50 -16 94 -37 100 -6 2
-19 -7 -29 -22z"/>
</g>
</svg>
